<svg data-v-423bf9ae="" xmlns="http://www.w3.org/2000/svg" viewBox="0 0 481.18126649507 60" class="font"><!----><!----><!----><g data-v-423bf9ae="" id="7011e630-c598-4438-a134-a80cb6fb04db" fill="black" transform="matrix(4.073319882187228,0,0,4.073319882187228,-1.4663956671041944,-9.450101616332354)"><path d="M5.33 11.07L5.33 11.07L5.33 11.07Q5.33 11.76 5.48 12.22L5.48 12.22L5.48 12.22Q5.63 12.67 5.85 12.94L5.85 12.94L5.85 12.94Q6.08 13.21 6.34 13.32L6.34 13.32L6.34 13.32Q6.60 13.43 6.82 13.43L6.82 13.43L6.82 13.43Q6.99 13.43 7.14 13.39L7.14 13.39L7.14 13.39Q7.28 13.34 7.39 13.29L7.39 13.29L7.39 13.29Q7.50 13.23 7.57 13.18L7.57 13.18L7.57 13.18Q7.65 13.14 7.69 13.14L7.69 13.14L7.69 13.14Q7.75 13.14 7.78 13.16L7.78 13.16L7.78 13.16Q7.80 13.18 7.83 13.23L7.83 13.23L8.07 13.60L8.07 13.60Q8.11 13.66 8.11 13.70L8.11 13.70L8.11 13.70Q8.11 13.75 8.08 13.77L8.08 13.77L8.08 13.77Q8.05 13.80 8.03 13.82L8.03 13.82L8.03 13.82Q7.80 13.98 7.47 14.15L7.47 14.15L7.47 14.15Q7.14 14.33 6.71 14.47L6.71 14.47L6.71 14.47Q6.28 14.62 5.74 14.71L5.74 14.71L5.74 14.71Q5.21 14.81 4.58 14.81L4.58 14.81L4.58 14.81Q4.07 14.81 3.55 14.72L3.55 14.72L3.55 14.72Q3.04 14.64 2.57 14.46L2.57 14.46L2.57 14.46Q2.11 14.27 1.70 13.98L1.70 13.98L1.70 13.98Q1.30 13.69 1.00 13.28L1.00 13.28L1.00 13.28Q0.70 12.87 0.53 12.31L0.53 12.31L0.53 12.31Q0.36 11.76 0.36 11.07L0.36 11.07L0.36 11.07Q0.36 10.37 0.53 9.82L0.53 9.82L0.53 9.82Q0.70 9.27 1.00 8.86L1.00 8.86L1.00 8.86Q1.30 8.44 1.70 8.15L1.70 8.15L1.70 8.15Q2.11 7.86 2.57 7.68L2.57 7.68L2.57 7.68Q3.04 7.49 3.55 7.41L3.55 7.41L3.55 7.41Q4.07 7.33 4.58 7.33L4.58 7.33L4.58 7.33Q5.14 7.33 5.66 7.41L5.66 7.41L5.66 7.41Q6.18 7.50 6.62 7.64L6.62 7.64L6.62 7.64Q7.06 7.78 7.41 7.95L7.41 7.95L7.41 7.95Q7.77 8.11 7.98 8.28L7.98 8.28L7.98 8.28Q8.01 8.30 8.04 8.33L8.04 8.33L8.04 8.33Q8.07 8.35 8.07 8.40L8.07 8.40L8.07 8.40Q8.07 8.45 8.03 8.50L8.03 8.50L7.79 8.87L7.79 8.87Q7.76 8.92 7.73 8.94L7.73 8.94L7.73 8.94Q7.71 8.96 7.65 8.96L7.65 8.96L7.65 8.96Q7.61 8.96 7.54 8.92L7.54 8.92L7.54 8.92Q7.47 8.88 7.37 8.83L7.37 8.83L7.37 8.83Q7.27 8.78 7.13 8.73L7.13 8.73L7.13 8.73Q6.99 8.69 6.82 8.69L6.82 8.69L6.82 8.69Q6.60 8.69 6.34 8.80L6.34 8.80L6.34 8.80Q6.08 8.91 5.85 9.19L5.85 9.19L5.85 9.19Q5.63 9.46 5.48 9.92L5.48 9.92L5.48 9.92Q5.33 10.38 5.33 11.07ZM13.91 4.28L13.91 7.66L13.91 7.66Q14.06 7.54 14.27 7.46L14.27 7.46L14.27 7.46Q14.49 7.39 14.74 7.39L14.74 7.39L14.74 7.39Q15.39 7.39 15.76 7.84L15.76 7.84L15.76 7.84Q16.13 8.29 16.13 9.17L16.13 9.17L16.13 14.21L16.13 14.21Q16.13 14.32 16.10 14.39L16.10 14.39L16.10 14.39Q16.06 14.45 16.02 14.48L16.02 14.48L16.02 14.48Q15.98 14.51 15.91 14.52L15.91 14.52L15.91 14.52Q15.85 14.53 15.79 14.53L15.79 14.53L15.35 14.53L15.35 14.53Q15.18 14.53 15.12 14.42L15.12 14.42L15.12 14.42Q15.07 14.32 15.07 14.21L15.07 14.21L15.07 9.10L15.07 9.10Q15.07 8.71 14.93 8.50L14.93 8.50L14.93 8.50Q14.79 8.30 14.49 8.30L14.49 8.30L14.49 8.30Q14.33 8.30 14.17 8.38L14.17 8.38L14.17 8.38Q14.01 8.47 13.91 8.57L13.91 8.57L13.91 13.57L13.91 13.57Q13.91 13.81 13.88 13.99L13.88 13.99L13.88 13.99Q13.86 14.16 13.75 14.28L13.75 14.28L13.75 14.28Q13.65 14.40 13.46 14.46L13.46 14.46L13.46 14.46Q13.27 14.53 12.94 14.53L12.94 14.53L9.78 14.53L9.78 14.53Q9.51 14.53 9.33 14.46L9.33 14.46L9.33 14.46Q9.16 14.40 9.06 14.29L9.06 14.29L9.06 14.29Q8.96 14.17 8.91 13.99L8.91 13.99L8.91 13.99Q8.87 13.82 8.87 13.58L8.87 13.58L8.87 4.28L8.87 4.28Q8.87 4.05 8.91 3.87L8.91 3.87L8.91 3.87Q8.96 3.68 9.07 3.57L9.07 3.57L9.07 3.57Q9.19 3.45 9.39 3.39L9.39 3.39L9.39 3.39Q9.60 3.33 9.93 3.33L9.93 3.33L12.92 3.33L12.92 3.33Q13.23 3.33 13.42 3.38L13.42 3.38L13.42 3.38Q13.62 3.44 13.73 3.56L13.73 3.56L13.73 3.56Q13.84 3.68 13.87 3.86L13.87 3.86L13.87 3.86Q13.91 4.03 13.91 4.28L13.91 4.28ZM23.89 14.53L20.24 14.53L20.24 14.53Q19.87 14.53 19.50 14.48L19.50 14.48L19.50 14.48Q19.13 14.43 18.79 14.32L18.79 14.32L18.79 14.32Q18.45 14.22 18.16 14.05L18.16 14.05L18.16 14.05Q17.86 13.88 17.65 13.62L17.65 13.62L17.65 13.62Q17.43 13.37 17.31 13.03L17.31 13.03L17.31 13.03Q17.19 12.69 17.19 12.24L17.19 12.24L17.19 12.24Q17.19 11.65 17.41 11.22L17.41 11.22L17.41 11.22Q17.64 10.80 18.02 10.52L18.02 10.52L18.02 10.52Q18.40 10.24 18.89 10.09L18.89 10.09L18.89 10.09Q19.38 9.94 19.91 9.90L19.91 9.90L19.91 9.43L19.91 9.43Q19.91 9.16 19.84 9.00L19.84 9.00L19.84 9.00Q19.77 8.85 19.66 8.77L19.66 8.77L19.66 8.77Q19.56 8.69 19.43 8.66L19.43 8.66L19.43 8.66Q19.30 8.64 19.19 8.64L19.19 8.64L19.19 8.64Q19.05 8.64 18.90 8.68L18.90 8.68L18.90 8.68Q18.74 8.72 18.60 8.78L18.60 8.78L18.60 8.78Q18.46 8.84 18.33 8.91L18.33 8.91L18.33 8.91Q18.20 8.98 18.11 9.03L18.11 9.03L18.11 9.03Q18.07 9.06 18.03 9.08L18.03 9.08L18.03 9.08Q18.00 9.10 17.96 9.10L17.96 9.10L17.96 9.10Q17.90 9.10 17.85 9.01L17.85 9.01L17.62 8.64L17.62 8.64Q17.58 8.59 17.58 8.54L17.58 8.54L17.58 8.54Q17.58 8.48 17.63 8.44L17.63 8.44L17.63 8.44Q17.67 8.40 17.71 8.37L17.71 8.37L17.71 8.37Q17.94 8.22 18.29 8.05L18.29 8.05L18.29 8.05Q18.63 7.89 19.07 7.76L19.07 7.76L19.07 7.76Q19.50 7.63 20.01 7.55L20.01 7.55L20.01 7.55Q20.51 7.46 21.05 7.46L21.05 7.46L21.05 7.46Q21.57 7.46 22.06 7.50L22.06 7.50L22.06 7.50Q22.54 7.53 22.98 7.65L22.98 7.65L22.98 7.65Q23.41 7.76 23.77 7.97L23.77 7.97L23.77 7.97Q24.13 8.18 24.39 8.52L24.39 8.52L24.39 8.52Q24.66 8.86 24.80 9.36L24.80 9.36L24.80 9.36Q24.94 9.86 24.94 10.55L24.94 10.55L24.94 13.60L24.94 13.60Q24.94 13.83 24.90 14.00L24.90 14.00L24.90 14.00Q24.86 14.18 24.75 14.29L24.75 14.29L24.75 14.29Q24.63 14.41 24.42 14.47L24.42 14.47L24.42 14.47Q24.22 14.53 23.89 14.53L23.89 14.53ZM19.91 13.65L19.91 10.77L19.91 10.77Q19.41 10.77 19.08 10.89L19.08 10.89L19.08 10.89Q18.74 11.01 18.54 11.22L18.54 11.22L18.54 11.22Q18.33 11.42 18.25 11.69L18.25 11.69L18.25 11.69Q18.16 11.96 18.16 12.25L18.16 12.25L18.16 12.25Q18.16 12.54 18.25 12.79L18.25 12.79L18.25 12.79Q18.33 13.05 18.54 13.24L18.54 13.24L18.54 13.24Q18.74 13.43 19.08 13.54L19.08 13.54L19.08 13.54Q19.41 13.65 19.91 13.65L19.91 13.65ZM26.20 13.58L26.20 8.48L26.20 8.48Q26.20 8.24 26.24 8.06L26.24 8.06L26.24 8.06Q26.28 7.88 26.40 7.77L26.40 7.77L26.40 7.77Q26.52 7.65 26.72 7.59L26.72 7.59L26.72 7.59Q26.93 7.53 27.25 7.53L27.25 7.53L30.05 7.53L30.05 7.53Q30.36 7.53 30.58 7.59L30.58 7.59L30.58 7.59Q30.80 7.65 30.90 7.80L30.90 7.80L30.90 7.80Q30.99 7.74 31.11 7.67L31.11 7.67L31.11 7.67Q31.24 7.59 31.39 7.53L31.39 7.53L31.39 7.53Q31.54 7.47 31.71 7.43L31.71 7.43L31.71 7.43Q31.88 7.39 32.07 7.39L32.07 7.39L32.07 7.39Q32.72 7.39 33.09 7.84L33.09 7.84L33.09 7.84Q33.46 8.29 33.46 9.17L33.46 9.17L33.46 14.21L33.46 14.21Q33.46 14.32 33.42 14.39L33.42 14.39L33.42 14.39Q33.39 14.45 33.35 14.48L33.35 14.48L33.35 14.48Q33.30 14.51 33.24 14.52L33.24 14.52L33.24 14.52Q33.18 14.53 33.12 14.53L33.12 14.53L32.68 14.53L32.68 14.53Q32.50 14.53 32.45 14.42L32.45 14.42L32.45 14.42Q32.40 14.32 32.40 14.21L32.40 14.21L32.40 9.10L32.40 9.10Q32.40 8.71 32.26 8.50L32.26 8.50L32.26 8.50Q32.12 8.30 31.81 8.30L31.81 8.30L31.81 8.30Q31.66 8.30 31.50 8.38L31.50 8.38L31.50 8.38Q31.34 8.47 31.24 8.57L31.24 8.57L31.24 13.57L31.24 13.57Q31.24 13.81 31.20 13.99L31.20 13.99L31.20 13.99Q31.16 14.16 31.04 14.28L31.04 14.28L31.04 14.28Q30.93 14.40 30.72 14.46L30.72 14.46L30.72 14.46Q30.52 14.53 30.19 14.53L30.19 14.53L27.25 14.53L27.25 14.53Q26.93 14.53 26.72 14.46L26.72 14.46L26.72 14.46Q26.52 14.40 26.40 14.29L26.40 14.29L26.40 14.29Q26.28 14.17 26.24 13.99L26.24 13.99L26.24 13.99Q26.20 13.82 26.20 13.58L26.20 13.58ZM42.47 4.28L42.47 13.58L42.47 13.58Q42.47 13.82 42.43 13.99L42.43 13.99L42.43 13.99Q42.39 14.17 42.27 14.29L42.27 14.29L42.27 14.29Q42.16 14.40 41.95 14.46L41.95 14.46L41.95 14.46Q41.75 14.53 41.42 14.53L41.42 14.53L38.43 14.53L38.43 14.53Q37.93 14.51 37.44 14.43L37.44 14.43L37.44 14.43Q36.96 14.36 36.51 14.19L36.51 14.19L36.51 14.19Q36.07 14.02 35.69 13.75L35.69 13.75L35.69 13.75Q35.31 13.48 35.04 13.09L35.04 13.09L35.04 13.09Q34.76 12.71 34.60 12.19L34.60 12.19L34.60 12.19Q34.45 11.66 34.45 10.99L34.45 10.99L34.45 10.99Q34.45 10.14 34.69 9.54L34.69 9.54L34.69 9.54Q34.92 8.93 35.33 8.52L35.33 8.52L35.33 8.52Q35.75 8.11 36.29 7.88L36.29 7.88L36.29 7.88Q36.83 7.64 37.43 7.53L37.43 7.53L37.43 4.29L37.43 4.29Q37.43 4.05 37.47 3.87L37.47 3.87L37.47 3.87Q37.50 3.68 37.61 3.56L37.61 3.56L37.61 3.56Q37.72 3.45 37.91 3.39L37.91 3.39L37.91 3.39Q38.10 3.33 38.42 3.33L38.42 3.33L41.42 3.33L41.42 3.33Q41.75 3.33 41.95 3.39L41.95 3.39L41.95 3.39Q42.16 3.45 42.27 3.57L42.27 3.57L42.27 3.57Q42.39 3.68 42.43 3.87L42.43 3.87L42.43 3.87Q42.47 4.05 42.47 4.28L42.47 4.28ZM35.42 10.99L35.42 10.99L35.42 10.99Q35.42 11.50 35.53 11.94L35.53 11.94L35.53 11.94Q35.65 12.38 35.89 12.72L35.89 12.72L35.89 12.72Q36.13 13.06 36.52 13.28L36.52 13.28L36.52 13.28Q36.90 13.49 37.43 13.56L37.43 13.56L37.43 8.40L37.43 8.40Q36.90 8.46 36.52 8.69L36.52 8.69L36.52 8.69Q36.13 8.91 35.89 9.25L35.89 9.25L35.89 9.25Q35.65 9.59 35.53 10.04L35.53 10.04L35.53 10.04Q35.42 10.48 35.42 10.99ZM50.24 14.53L46.59 14.53L46.59 14.53Q46.22 14.53 45.85 14.48L45.85 14.48L45.85 14.48Q45.47 14.43 45.13 14.32L45.13 14.32L45.13 14.32Q44.80 14.22 44.50 14.05L44.50 14.05L44.50 14.05Q44.21 13.88 43.99 13.62L43.99 13.62L43.99 13.62Q43.78 13.37 43.65 13.03L43.65 13.03L43.65 13.03Q43.53 12.69 43.53 12.24L43.53 12.24L43.53 12.24Q43.53 11.65 43.76 11.22L43.76 11.22L43.76 11.22Q43.98 10.80 44.36 10.52L44.36 10.52L44.36 10.52Q44.74 10.24 45.23 10.09L45.23 10.09L45.23 10.09Q45.73 9.94 46.25 9.90L46.25 9.90L46.25 9.43L46.25 9.43Q46.25 9.16 46.18 9.00L46.18 9.00L46.18 9.00Q46.12 8.85 46.01 8.77L46.01 8.77L46.01 8.77Q45.90 8.69 45.78 8.66L45.78 8.66L45.78 8.66Q45.65 8.64 45.53 8.64L45.53 8.64L45.53 8.64Q45.40 8.64 45.24 8.68L45.24 8.68L45.24 8.68Q45.09 8.72 44.95 8.78L44.95 8.78L44.95 8.78Q44.80 8.84 44.67 8.91L44.67 8.91L44.67 8.91Q44.54 8.98 44.45 9.03L44.45 9.03L44.45 9.03Q44.41 9.06 44.38 9.08L44.38 9.08L44.38 9.08Q44.34 9.10 44.31 9.10L44.31 9.10L44.31 9.10Q44.25 9.10 44.19 9.01L44.19 9.01L43.96 8.64L43.96 8.64Q43.93 8.59 43.93 8.54L43.93 8.54L43.93 8.54Q43.93 8.48 43.97 8.44L43.97 8.44L43.97 8.44Q44.02 8.40 44.06 8.37L44.06 8.37L44.06 8.37Q44.28 8.22 44.63 8.05L44.63 8.05L44.63 8.05Q44.98 7.89 45.41 7.76L45.41 7.76L45.41 7.76Q45.85 7.63 46.35 7.55L46.35 7.55L46.35 7.55Q46.86 7.46 47.40 7.46L47.40 7.46L47.40 7.46Q47.91 7.46 48.40 7.50L48.40 7.50L48.40 7.50Q48.89 7.53 49.32 7.65L49.32 7.65L49.32 7.65Q49.76 7.76 50.12 7.97L50.12 7.97L50.12 7.97Q50.48 8.18 50.74 8.52L50.74 8.52L50.74 8.52Q51.00 8.86 51.15 9.36L51.15 9.36L51.15 9.36Q51.29 9.86 51.29 10.55L51.29 10.55L51.29 13.60L51.29 13.60Q51.29 13.83 51.25 14.00L51.25 14.00L51.25 14.00Q51.21 14.18 51.09 14.29L51.09 14.29L51.09 14.29Q50.98 14.41 50.77 14.47L50.77 14.47L50.77 14.47Q50.57 14.53 50.24 14.53L50.24 14.53ZM46.25 13.65L46.25 10.77L46.25 10.77Q45.76 10.77 45.42 10.89L45.42 10.89L45.42 10.89Q45.09 11.01 44.88 11.22L44.88 11.22L44.88 11.22Q44.68 11.42 44.59 11.69L44.59 11.69L44.59 11.69Q44.50 11.96 44.50 12.25L44.50 12.25L44.50 12.25Q44.50 12.54 44.59 12.79L44.59 12.79L44.59 12.79Q44.68 13.05 44.88 13.24L44.88 13.24L44.88 13.24Q45.09 13.43 45.42 13.54L45.42 13.54L45.42 13.54Q45.76 13.65 46.25 13.65L46.25 13.65ZM52.55 13.58L52.55 8.48L52.55 8.48Q52.55 8.24 52.59 8.06L52.59 8.06L52.59 8.06Q52.63 7.88 52.75 7.77L52.75 7.77L52.75 7.77Q52.86 7.65 53.07 7.59L53.07 7.59L53.07 7.59Q53.27 7.53 53.60 7.53L53.60 7.53L56.40 7.53L56.40 7.53Q56.70 7.53 56.93 7.59L56.93 7.59L56.93 7.59Q57.15 7.65 57.24 7.80L57.24 7.80L57.24 7.80Q57.33 7.74 57.46 7.67L57.46 7.67L57.46 7.67Q57.59 7.59 57.74 7.53L57.74 7.53L57.74 7.53Q57.89 7.47 58.06 7.43L58.06 7.43L58.06 7.43Q58.23 7.39 58.41 7.39L58.41 7.39L58.41 7.39Q59.07 7.39 59.44 7.84L59.44 7.84L59.44 7.84Q59.80 8.29 59.80 9.17L59.80 9.17L59.80 14.21L59.80 14.21Q59.80 14.32 59.77 14.39L59.77 14.39L59.77 14.39Q59.74 14.45 59.69 14.48L59.69 14.48L59.69 14.48Q59.65 14.51 59.59 14.52L59.59 14.52L59.59 14.52Q59.53 14.53 59.47 14.53L59.47 14.53L59.03 14.53L59.03 14.53Q58.85 14.53 58.80 14.42L58.80 14.42L58.80 14.42Q58.75 14.32 58.75 14.21L58.75 14.21L58.75 9.10L58.75 9.10Q58.75 8.71 58.61 8.50L58.61 8.50L58.61 8.50Q58.47 8.30 58.16 8.30L58.16 8.30L58.16 8.30Q58.00 8.30 57.84 8.38L57.84 8.38L57.84 8.38Q57.68 8.47 57.59 8.57L57.59 8.57L57.59 13.57L57.59 13.57Q57.59 13.81 57.54 13.99L57.54 13.99L57.54 13.99Q57.50 14.16 57.39 14.28L57.39 14.28L57.39 14.28Q57.27 14.40 57.07 14.46L57.07 14.46L57.07 14.46Q56.86 14.53 56.53 14.53L56.53 14.53L53.60 14.53L53.60 14.53Q53.27 14.53 53.07 14.46L53.07 14.46L53.07 14.46Q52.86 14.40 52.75 14.29L52.75 14.29L52.75 14.29Q52.63 14.17 52.59 13.99L52.59 13.99L52.59 13.99Q52.55 13.82 52.55 13.58L52.55 13.58ZM61.06 13.58L61.06 4.28L61.06 4.28Q61.06 4.05 61.10 3.87L61.10 3.87L61.10 3.87Q61.14 3.68 61.26 3.57L61.26 3.57L61.26 3.57Q61.37 3.45 61.58 3.39L61.58 3.39L61.58 3.39Q61.78 3.33 62.11 3.33L62.11 3.33L65.11 3.33L65.11 3.33Q65.42 3.33 65.61 3.39L65.61 3.39L65.61 3.39Q65.80 3.45 65.91 3.57L65.91 3.57L65.91 3.57Q66.02 3.68 66.06 3.87L66.06 3.87L66.06 3.87Q66.10 4.05 66.10 4.28L66.10 4.28L66.10 9.21L67.74 7.59L67.74 7.59Q67.81 7.51 67.88 7.48L67.88 7.48L67.88 7.48Q67.95 7.45 68.00 7.45L68.00 7.45L68.00 7.45Q68.13 7.45 68.22 7.55L68.22 7.55L68.56 7.91L68.56 7.91Q68.63 8.00 68.63 8.08L68.63 8.08L68.63 8.08Q68.63 8.16 68.58 8.23L68.58 8.23L68.58 8.23Q68.53 8.31 68.41 8.39L68.41 8.39L66.27 9.97L66.27 9.97Q66.84 9.99 67.23 10.12L67.23 10.12L67.23 10.12Q67.62 10.25 67.86 10.49L67.86 10.49L67.86 10.49Q68.10 10.73 68.21 11.08L68.21 11.08L68.21 11.08Q68.31 11.44 68.31 11.91L68.31 11.91L68.31 14.21L68.31 14.21Q68.31 14.32 68.28 14.39L68.28 14.39L68.28 14.39Q68.25 14.45 68.21 14.48L68.21 14.48L68.21 14.48Q68.16 14.51 68.10 14.52L68.10 14.52L68.10 14.52Q68.04 14.53 67.98 14.53L67.98 14.53L67.54 14.53L67.54 14.53Q67.36 14.53 67.31 14.42L67.31 14.42L67.31 14.42Q67.26 14.32 67.26 14.21L67.26 14.21L67.26 11.84L67.26 11.84Q67.26 11.53 67.20 11.32L67.20 11.32L67.20 11.32Q67.14 11.11 67.01 10.98L67.01 10.98L67.01 10.98Q66.87 10.86 66.65 10.80L66.65 10.80L66.65 10.80Q66.42 10.74 66.10 10.73L66.10 10.73L66.10 13.59L66.10 13.59Q66.10 13.82 66.05 14.00L66.05 14.00L66.05 14.00Q66.01 14.17 65.88 14.29L65.88 14.29L65.88 14.29Q65.76 14.41 65.54 14.47L65.54 14.47L65.54 14.47Q65.32 14.53 64.98 14.53L64.98 14.53L62.11 14.53L62.11 14.53Q61.78 14.53 61.58 14.46L61.58 14.46L61.58 14.46Q61.37 14.40 61.26 14.29L61.26 14.29L61.26 14.29Q61.14 14.17 61.10 13.99L61.10 13.99L61.10 13.99Q61.06 13.82 61.06 13.58L61.06 13.58ZM69.38 13.58L69.38 8.48L69.38 8.48Q69.38 8.24 69.42 8.06L69.42 8.06L69.42 8.06Q69.46 7.88 69.58 7.77L69.58 7.77L69.58 7.77Q69.69 7.65 69.90 7.59L69.90 7.59L69.90 7.59Q70.10 7.53 70.43 7.53L70.43 7.53L73.42 7.53L73.42 7.53Q73.74 7.53 73.93 7.59L73.93 7.59L73.93 7.59Q74.12 7.65 74.23 7.77L74.23 7.77L74.23 7.77Q74.34 7.90 74.38 8.08L74.38 8.08L74.38 8.08Q74.42 8.26 74.42 8.51L74.42 8.51L74.42 9.02L75.93 7.54L75.93 7.54Q76.08 7.40 76.21 7.40L76.21 7.40L76.21 7.40Q76.29 7.40 76.35 7.43L76.35 7.43L76.35 7.43Q76.41 7.46 76.45 7.50L76.45 7.50L76.75 7.82L76.75 7.82Q76.86 7.92 76.86 8.05L76.86 8.05L76.86 8.05Q76.86 8.12 76.81 8.20L76.81 8.20L76.81 8.20Q76.77 8.28 76.67 8.35L76.67 8.35L74.42 10.10L74.42 13.56L74.42 13.56Q74.42 13.80 74.38 13.98L74.38 13.98L74.38 13.98Q74.35 14.16 74.23 14.28L74.23 14.28L74.23 14.28Q74.12 14.40 73.90 14.46L73.90 14.46L73.90 14.46Q73.68 14.53 73.30 14.53L73.30 14.53L70.43 14.53L70.43 14.53Q70.10 14.53 69.90 14.46L69.90 14.46L69.90 14.46Q69.69 14.40 69.58 14.29L69.58 14.29L69.58 14.29Q69.46 14.17 69.42 13.99L69.42 13.99L69.42 13.99Q69.38 13.82 69.38 13.58L69.38 13.58ZM76.76 11.04L76.76 11.04L76.76 11.04Q76.76 10.26 77.05 9.58L77.05 9.58L77.05 9.58Q77.35 8.89 77.86 8.38L77.86 8.38L77.86 8.38Q78.37 7.88 79.05 7.58L79.05 7.58L79.05 7.58Q79.73 7.29 80.51 7.29L80.51 7.29L80.51 7.29Q81.29 7.29 81.98 7.58L81.98 7.58L81.98 7.58Q82.66 7.88 83.17 8.38L83.17 8.38L83.17 8.38Q83.68 8.89 83.97 9.58L83.97 9.58L83.97 9.58Q84.27 10.26 84.27 11.04L84.27 11.04L84.27 11.04Q84.27 11.82 83.97 12.50L83.97 12.50L83.97 12.50Q83.68 13.19 83.17 13.70L83.17 13.70L83.17 13.70Q82.66 14.21 81.98 14.50L81.98 14.50L81.98 14.50Q81.29 14.79 80.51 14.79L80.51 14.79L80.51 14.79Q79.73 14.79 79.05 14.50L79.05 14.50L79.05 14.50Q78.37 14.21 77.86 13.70L77.86 13.70L77.86 13.70Q77.35 13.19 77.05 12.50L77.05 12.50L77.05 12.50Q76.76 11.82 76.76 11.04ZM82.15 12.93L82.15 12.93L82.15 12.93Q82.38 12.93 82.59 12.83L82.59 12.83L82.59 12.83Q82.80 12.72 82.95 12.50L82.95 12.50L82.95 12.50Q83.11 12.27 83.21 11.91L83.21 11.91L83.21 11.91Q83.30 11.55 83.30 11.04L83.30 11.04L83.30 11.04Q83.30 10.53 83.21 10.17L83.21 10.17L83.21 10.17Q83.11 9.81 82.95 9.58L82.95 9.58L82.95 9.58Q82.80 9.36 82.59 9.26L82.59 9.26L82.59 9.26Q82.38 9.15 82.15 9.15L82.15 9.15L82.15 9.15Q81.93 9.15 81.72 9.26L81.72 9.26L81.72 9.26Q81.51 9.36 81.35 9.58L81.35 9.58L81.35 9.58Q81.20 9.81 81.10 10.17L81.10 10.17L81.10 10.17Q81.01 10.53 81.01 11.04L81.01 11.04L81.01 11.04Q81.01 11.55 81.10 11.91L81.10 11.91L81.10 11.91Q81.20 12.27 81.35 12.50L81.35 12.50L81.35 12.50Q81.51 12.72 81.72 12.83L81.72 12.83L81.72 12.83Q81.93 12.93 82.15 12.93ZM86.06 8.74L85.14 9.06L85.14 9.06Q85.12 9.06 85.08 9.07L85.08 9.07L85.08 9.07Q85.05 9.08 85.00 9.08L85.00 9.08L85.00 9.08Q84.91 9.08 84.84 9.04L84.84 9.04L84.84 9.04Q84.77 9.00 84.75 8.89L84.75 8.89L84.70 8.43L84.70 8.43Q84.69 8.39 84.69 8.37L84.69 8.37L84.69 8.37Q84.68 8.35 84.68 8.33L84.68 8.33L84.68 8.33Q84.68 8.31 84.68 8.30L84.68 8.30L84.68 8.30Q84.68 8.18 84.73 8.11L84.73 8.11L84.73 8.11Q84.77 8.05 84.97 8.01L84.97 8.01L89.65 7.33L89.65 7.33Q89.76 7.32 89.91 7.30L89.91 7.30L89.91 7.30Q90.06 7.29 90.10 7.29L90.10 7.29L90.10 7.29Q90.41 7.29 90.56 7.41L90.56 7.41L90.56 7.41Q90.72 7.53 90.79 7.71L90.79 7.71L90.79 7.71Q90.86 7.88 90.86 8.08L90.86 8.08L90.86 8.08Q90.87 8.28 90.87 8.42L90.87 8.42L90.87 13.58L90.87 13.58Q90.87 13.74 90.86 13.90L90.86 13.90L90.86 13.90Q90.85 14.07 90.76 14.21L90.76 14.21L90.76 14.21Q90.67 14.35 90.46 14.44L90.46 14.44L90.46 14.44Q90.25 14.53 89.85 14.53L89.85 14.53L87.02 14.53L87.02 14.53Q86.73 14.53 86.54 14.46L86.54 14.46L86.54 14.46Q86.35 14.40 86.25 14.29L86.25 14.29L86.25 14.29Q86.14 14.17 86.10 13.99L86.10 13.99L86.10 13.99Q86.06 13.82 86.06 13.58L86.06 13.58L86.06 8.74ZM98.36 13.55L99.30 13.55L99.30 13.55Q99.44 13.55 99.44 13.69L99.44 13.69L99.44 14.38L99.44 14.38Q99.44 14.53 99.30 14.53L99.30 14.53L98.36 14.53L98.36 16.73L98.36 16.73Q98.36 16.88 98.29 16.97L98.29 16.97L98.29 16.97Q98.23 17.05 98.03 17.05L98.03 17.05L97.32 17.05L97.32 17.05Q97.14 17.05 97.09 16.95L97.09 16.95L97.09 16.95Q97.04 16.84 97.04 16.73L97.04 16.73L97.04 14.53L92.74 14.53L92.74 14.53Q92.22 14.53 92.01 14.38L92.01 14.38L92.01 14.38Q91.80 14.23 91.80 13.93L91.80 13.93L91.80 13.93Q91.80 13.78 91.85 13.58L91.85 13.58L93.11 8.48L93.11 8.48Q93.17 8.24 93.25 8.06L93.25 8.06L93.25 8.06Q93.32 7.88 93.45 7.77L93.45 7.77L93.45 7.77Q93.58 7.65 93.78 7.59L93.78 7.59L93.78 7.59Q93.99 7.53 94.32 7.53L94.32 7.53L96.25 7.53L96.25 7.53Q96.52 7.53 96.69 7.58L96.69 7.58L96.69 7.58Q96.87 7.64 96.96 7.73L96.96 7.73L96.96 7.73Q97.06 7.82 97.09 7.94L97.09 7.94L97.09 7.94Q97.13 8.05 97.13 8.18L97.13 8.18L97.13 8.18Q97.13 8.31 97.11 8.43L97.11 8.43L97.11 8.43Q97.09 8.55 97.06 8.66L97.06 8.66L95.94 13.55L97.04 13.55L97.04 11.59L97.04 11.59Q97.04 11.48 97.09 11.39L97.09 11.39L97.09 11.39Q97.14 11.29 97.32 11.29L97.32 11.29L98.05 11.29L98.05 11.29Q98.23 11.29 98.30 11.36L98.30 11.36L98.30 11.36Q98.36 11.44 98.36 11.59L98.36 11.59L98.36 13.55ZM100.14 13.08L100.14 13.08L100.14 13.08Q100.14 12.76 100.27 12.47L100.27 12.47L100.27 12.47Q100.39 12.18 100.61 11.97L100.61 11.97L100.61 11.97Q100.82 11.75 101.11 11.63L101.11 11.63L101.11 11.63Q101.40 11.50 101.73 11.50L101.73 11.50L101.73 11.50Q102.05 11.50 102.34 11.63L102.34 11.63L102.34 11.63Q102.63 11.75 102.84 11.97L102.84 11.97L102.84 11.97Q103.06 12.18 103.18 12.47L103.18 12.47L103.18 12.47Q103.30 12.76 103.30 13.08L103.30 13.08L103.30 13.08Q103.30 13.41 103.18 13.70L103.18 13.70L103.18 13.70Q103.06 13.99 102.84 14.20L102.84 14.20L102.84 14.20Q102.63 14.42 102.34 14.54L102.34 14.54L102.34 14.54Q102.05 14.66 101.73 14.66L101.73 14.66L101.73 14.66Q101.40 14.66 101.11 14.54L101.11 14.54L101.11 14.54Q100.82 14.42 100.61 14.20L100.61 14.20L100.61 14.20Q100.39 13.99 100.27 13.70L100.27 13.70L100.27 13.70Q100.14 13.41 100.14 13.08ZM111.15 14.53L107.50 14.53L107.50 14.53Q107.13 14.53 106.75 14.48L106.75 14.48L106.75 14.48Q106.38 14.43 106.04 14.32L106.04 14.32L106.04 14.32Q105.70 14.22 105.41 14.05L105.41 14.05L105.41 14.05Q105.12 13.88 104.90 13.62L104.90 13.62L104.90 13.62Q104.69 13.37 104.56 13.03L104.56 13.03L104.56 13.03Q104.44 12.69 104.44 12.24L104.44 12.24L104.44 12.24Q104.44 11.65 104.67 11.22L104.67 11.22L104.67 11.22Q104.89 10.80 105.27 10.52L105.27 10.52L105.27 10.52Q105.65 10.24 106.14 10.09L106.14 10.09L106.14 10.09Q106.63 9.94 107.16 9.90L107.16 9.90L107.16 9.43L107.16 9.43Q107.16 9.16 107.09 9.00L107.09 9.00L107.09 9.00Q107.02 8.85 106.92 8.77L106.92 8.77L106.92 8.77Q106.81 8.69 106.69 8.66L106.69 8.66L106.69 8.66Q106.56 8.64 106.44 8.64L106.44 8.64L106.44 8.64Q106.31 8.64 106.15 8.68L106.15 8.68L106.15 8.68Q106.00 8.72 105.85 8.78L105.85 8.78L105.85 8.78Q105.71 8.84 105.58 8.91L105.58 8.91L105.58 8.91Q105.45 8.98 105.36 9.03L105.36 9.03L105.36 9.03Q105.32 9.06 105.29 9.08L105.29 9.08L105.29 9.08Q105.25 9.10 105.22 9.10L105.22 9.10L105.22 9.10Q105.16 9.10 105.10 9.01L105.10 9.01L104.87 8.64L104.87 8.64Q104.84 8.59 104.84 8.54L104.84 8.54L104.84 8.54Q104.84 8.48 104.88 8.44L104.88 8.44L104.88 8.44Q104.92 8.40 104.97 8.37L104.97 8.37L104.97 8.37Q105.19 8.22 105.54 8.05L105.54 8.05L105.54 8.05Q105.89 7.89 106.32 7.76L106.32 7.76L106.32 7.76Q106.76 7.63 107.26 7.55L107.26 7.55L107.26 7.55Q107.77 7.46 108.31 7.46L108.31 7.46L108.31 7.46Q108.82 7.46 109.31 7.50L109.31 7.50L109.31 7.50Q109.80 7.53 110.23 7.65L110.23 7.65L110.23 7.65Q110.67 7.76 111.03 7.97L111.03 7.97L111.03 7.97Q111.38 8.18 111.65 8.52L111.65 8.52L111.65 8.52Q111.91 8.86 112.05 9.36L112.05 9.36L112.05 9.36Q112.20 9.86 112.20 10.55L112.20 10.55L112.20 13.60L112.20 13.60Q112.20 13.83 112.16 14.00L112.16 14.00L112.16 14.00Q112.12 14.18 112 14.29L112 14.29L112 14.29Q111.88 14.41 111.68 14.47L111.68 14.47L111.68 14.47Q111.47 14.53 111.15 14.53L111.15 14.53ZM107.16 13.65L107.16 10.77L107.16 10.77Q106.67 10.77 106.33 10.89L106.33 10.89L106.33 10.89Q106.00 11.01 105.79 11.22L105.79 11.22L105.79 11.22Q105.59 11.42 105.50 11.69L105.50 11.69L105.50 11.69Q105.41 11.96 105.41 12.25L105.41 12.25L105.41 12.25Q105.41 12.54 105.50 12.79L105.50 12.79L105.50 12.79Q105.59 13.05 105.79 13.24L105.79 13.24L105.79 13.24Q106.00 13.43 106.33 13.54L106.33 13.54L106.33 13.54Q106.67 13.65 107.16 13.65L107.16 13.65ZM113.46 13.58L113.46 8.48L113.46 8.48Q113.46 8.24 113.50 8.06L113.50 8.06L113.50 8.06Q113.54 7.88 113.65 7.77L113.65 7.77L113.65 7.77Q113.77 7.65 113.98 7.59L113.98 7.59L113.98 7.59Q114.18 7.53 114.51 7.53L114.51 7.53L117.50 7.53L117.50 7.53Q117.82 7.53 118.01 7.58L118.01 7.58L118.01 7.58Q118.21 7.64 118.32 7.76L118.32 7.76L118.32 7.76Q118.43 7.88 118.46 8.05L118.46 8.05L118.46 8.05Q118.49 8.23 118.49 8.48L118.49 8.48L118.49 13.59L118.49 13.59Q118.49 13.82 118.46 14.00L118.46 14.00L118.46 14.00Q118.43 14.17 118.32 14.29L118.32 14.29L118.32 14.29Q118.21 14.41 118.01 14.47L118.01 14.47L118.01 14.47Q117.82 14.53 117.50 14.53L117.50 14.53L114.51 14.53L114.51 14.53Q114.18 14.53 113.98 14.46L113.98 14.46L113.98 14.46Q113.77 14.40 113.65 14.29L113.65 14.29L113.65 14.29Q113.54 14.17 113.50 13.99L113.50 13.99L113.50 13.99Q113.46 13.82 113.46 13.58L113.46 13.58ZM113.71 4.60L113.71 4.60L113.71 4.60Q113.71 4.13 113.89 3.71L113.89 3.71L113.89 3.71Q114.07 3.29 114.38 2.99L114.38 2.99L114.38 2.99Q114.69 2.68 115.10 2.50L115.10 2.50L115.10 2.50Q115.52 2.32 115.99 2.32L115.99 2.32L115.99 2.32Q116.46 2.32 116.87 2.50L116.87 2.50L116.87 2.50Q117.28 2.68 117.59 2.99L117.59 2.99L117.59 2.99Q117.90 3.29 118.08 3.71L118.08 3.71L118.08 3.71Q118.26 4.13 118.26 4.60L118.26 4.60L118.26 4.60Q118.26 5.07 118.08 5.48L118.08 5.48L118.08 5.48Q117.90 5.89 117.59 6.20L117.59 6.20L117.59 6.20Q117.28 6.51 116.87 6.69L116.87 6.69L116.87 6.69Q116.46 6.87 115.99 6.87L115.99 6.87L115.99 6.87Q115.52 6.87 115.10 6.69L115.10 6.69L115.10 6.69Q114.69 6.51 114.38 6.20L114.38 6.20L114.38 6.20Q114.07 5.89 113.89 5.48L113.89 5.48L113.89 5.48Q113.71 5.07 113.71 4.60Z"></path></g><!----><!----></svg>